<svg width="14" height="13" viewBox="0 0 14 13" fill="none" xmlns="http://www.w3.org/2000/svg">
<path fill-rule="evenodd" clip-rule="evenodd" d="M0.961207 5.66616C4.72357 3.9695 7.22735 2.85455 8.47924 2.31439C12.0608 0.777006 12.8039 0.506925 13.2927 0.5C13.3998 0.5 13.6341 0.520775 13.7881 0.652353C13.9219 0.763155 13.9554 0.908584 13.9755 1.01246C13.9889 1.11634 14.009 1.35872 13.9956 1.53877C13.6043 4.7506 13.1176 7.94923 12.5362 11.1301C12.3554 12.1273 12.0006 12.4597 11.6525 12.4944C10.9027 12.5636 10.3336 11.9819 9.61063 11.4902C8.47254 10.7284 7.83656 10.2437 6.73195 9.49577C5.45998 8.6232 6.28341 8.14536 7.01312 7.36975C7.20057 7.16199 10.4943 4.05953 10.5613 3.77559C10.5746 3.74097 10.5813 3.60939 10.501 3.54014C10.4341 3.47089 10.3203 3.49859 10.2332 3.51936C10.1261 3.54014 8.31187 4.77974 4.79721 7.23124C4.28173 7.59828 3.8198 7.77833 3.39804 7.77141C2.94281 7.75756 2.05912 7.4944 1.39636 7.27972C0.593005 7.00271 -0.056371 6.86421 0.00388037 6.40023C0.0306588 6.16477 0.351999 5.91547 0.961207 5.66616Z" fill="white"/>
</svg>
