<svg width="48" height="49" viewBox="0 0 48 49" fill="none" xmlns="http://www.w3.org/2000/svg">
<g filter="url(#filter0_d_2001_967)">
<rect x="4.5" y="4" width="39" height="39" rx="19.5" stroke="white" shape-rendering="crispEdges"/>
<path fill-rule="evenodd" clip-rule="evenodd" d="M16.5 23.4998C16.5 19.3652 19.8632 16.002 23.9978 16.002V16.0021H24.0022C28.1368 16.0021 31.5 19.3653 31.5 23.4999C31.5 27.6344 28.1368 30.9977 24.0022 30.9977C22.477 30.9977 21.0621 30.5438 19.8764 29.7592L16.9936 30.6802L17.9281 27.8945C17.029 26.6602 16.5 25.1395 16.5 23.4998ZM21.428 19.4399C21.6483 19.4488 21.7586 19.462 21.904 19.8102C21.951 19.9236 22.0155 20.0801 22.0862 20.2517C22.2876 20.7403 22.5392 21.3507 22.5784 21.4323C22.6312 21.5425 22.6842 21.6924 22.6092 21.8378C22.5436 21.9773 22.4856 22.0443 22.3891 22.1558C22.3819 22.1642 22.3744 22.1728 22.3668 22.1817C22.3196 22.2364 22.2732 22.2855 22.227 22.3344C22.1652 22.3998 22.1036 22.465 22.0406 22.5432C22.0388 22.5453 22.037 22.5473 22.0353 22.5494C21.9354 22.6666 21.8268 22.794 21.9525 23.0104C22.0803 23.2264 22.521 23.9448 23.169 24.5222C23.9381 25.2061 24.5732 25.4629 24.8597 25.5788C24.8852 25.5891 24.908 25.5983 24.9278 25.6066C25.1084 25.6816 25.3245 25.6639 25.4568 25.5229C25.6001 25.3684 25.7724 25.1266 25.9517 24.8751C25.982 24.8326 26.0125 24.7898 26.0431 24.7471C26.1929 24.5355 26.3823 24.509 26.5807 24.5839C26.7835 24.6544 27.8547 25.1834 28.0751 25.2936C28.1201 25.3161 28.1619 25.3363 28.2005 25.3548C28.351 25.4271 28.4517 25.4756 28.4938 25.5492C28.5468 25.6418 28.5468 26.0782 28.366 26.5896C28.1853 27.1008 27.4667 27.5241 26.8937 27.6475C26.5015 27.7312 25.9901 27.7974 24.2666 27.0834C22.2253 26.2381 20.8569 24.2546 20.5786 23.8512C20.5565 23.819 20.5412 23.7969 20.5331 23.7862C20.53 23.782 20.5263 23.7769 20.5221 23.7711C20.382 23.5797 19.6427 22.5689 19.6427 21.5248C19.6427 20.4794 20.1591 19.9546 20.3904 19.7196C20.3971 19.7128 20.4035 19.7063 20.4097 19.7C20.5904 19.5149 20.8901 19.4312 21.1767 19.4312C21.2606 19.4316 21.3444 19.4345 21.428 19.4399Z" fill="white"/>
</g>
<defs>
<filter id="filter0_d_2001_967" x="0" y="0.5" width="48" height="48" filterUnits="userSpaceOnUse" color-interpolation-filters="sRGB">
<feFlood flood-opacity="0" result="BackgroundImageFix"/>
<feColorMatrix in="SourceAlpha" type="matrix" values="0 0 0 0 0 0 0 0 0 0 0 0 0 0 0 0 0 0 127 0" result="hardAlpha"/>
<feOffset dy="1"/>
<feGaussianBlur stdDeviation="2"/>
<feComposite in2="hardAlpha" operator="out"/>
<feColorMatrix type="matrix" values="0 0 0 0 0.0969792 0 0 0 0 0.127894 0 0 0 0 0.2375 0 0 0 0.08 0"/>
<feBlend mode="normal" in2="BackgroundImageFix" result="effect1_dropShadow_2001_967"/>
<feBlend mode="normal" in="SourceGraphic" in2="effect1_dropShadow_2001_967" result="shape"/>
</filter>
</defs>
</svg>
