<svg width="16" height="15" viewBox="0 0 16 15" fill="none" xmlns="http://www.w3.org/2000/svg">
<path fill-rule="evenodd" clip-rule="evenodd" d="M0.5 7.49978C0.5 3.36516 3.8632 0.00195312 7.99782 0.00195312V0.00207758H8.00218C12.1368 0.00207758 15.5 3.36528 15.5 7.4999C15.5 11.6344 12.1368 14.9977 8.00218 14.9977C6.47701 14.9977 5.06206 14.5438 3.87639 13.7592L0.993627 14.6802L1.92813 11.8945C1.02896 10.6602 0.5 9.13952 0.5 7.49978ZM5.42802 3.43987C5.64833 3.44883 5.75855 3.46201 5.90398 3.81021C5.95096 3.92359 6.01549 4.08015 6.08621 4.25172C6.28763 4.74033 6.53923 5.35071 6.57836 5.43229C6.63123 5.54251 6.68423 5.69241 6.60922 5.83784C6.5436 5.97729 6.48562 6.04429 6.38913 6.15581C6.38189 6.16417 6.37444 6.17278 6.36676 6.18169C6.31959 6.23642 6.27324 6.28547 6.227 6.3344C6.16521 6.39981 6.10362 6.46499 6.04057 6.5432C6.03881 6.54527 6.03704 6.54734 6.03527 6.54942C5.93539 6.66661 5.82684 6.79397 5.9525 7.01045C6.08026 7.22641 6.52101 7.94483 7.16902 8.52218C7.93807 9.20614 8.5732 9.46294 8.85968 9.57878C8.88521 9.5891 8.90798 9.5983 8.92782 9.60659C9.10845 9.68161 9.32453 9.66394 9.45677 9.52287C9.60011 9.36835 9.7724 9.12664 9.95168 8.87511C9.98198 8.8326 10.0125 8.7898 10.0431 8.7471C10.1929 8.53549 10.3823 8.509 10.5807 8.58388C10.7835 8.65442 11.8547 9.18338 12.0751 9.2936C12.1201 9.31613 12.1619 9.33627 12.2005 9.35483C12.351 9.42715 12.4517 9.47559 12.4938 9.54924C12.5468 9.6418 12.5468 10.0782 12.366 10.5896C12.1853 11.1008 11.4667 11.5241 10.8937 11.6475C10.5015 11.7312 9.99008 11.7974 8.26662 11.0834C6.22526 10.2381 4.85693 8.2546 4.57861 7.85117C4.55645 7.81904 4.5412 7.79694 4.53307 7.78622C4.52997 7.78196 4.52629 7.77692 4.52207 7.77114C4.38203 7.57968 3.64273 6.56891 3.64273 5.52484C3.64273 4.47943 4.15912 3.95464 4.39038 3.71962C4.39705 3.71284 4.40349 3.7063 4.40967 3.69999C4.59042 3.51488 4.89011 3.43116 5.17673 3.43116C5.26056 3.43158 5.34436 3.43448 5.42802 3.43987Z" fill="white"/>
</svg>
